<?xml version="1.0" encoding="UTF-8"?>
<!-- Do not edit this file with editors other than draw.io -->
<!DOCTYPE svg PUBLIC "-//W3C//DTD SVG 1.1//EN" "http://www.w3.org/Graphics/SVG/1.1/DTD/svg11.dtd">
<svg xmlns="http://www.w3.org/2000/svg" xmlns:xlink="http://www.w3.org/1999/xlink" version="1.1" width="51px" height="51px" viewBox="-0.5 -0.5 51 51" content="&lt;mxfile host=&quot;app.diagrams.net&quot; agent=&quot;Mozilla/5.0 (Windows NT 10.0; Win64; x64) AppleWebKit/537.36 (KHTML, like Gecko) Chrome/130.0.0.0 Safari/537.36&quot; version=&quot;24.8.4&quot; scale=&quot;1&quot; border=&quot;0&quot;&gt;&#10;  &lt;diagram name=&quot;Page-1&quot; id=&quot;GXeyYPWSm_8A8ZPeZfRu&quot;&gt;&#10;    &lt;mxGraphModel dx=&quot;778&quot; dy=&quot;413&quot; grid=&quot;1&quot; gridSize=&quot;10&quot; guides=&quot;1&quot; tooltips=&quot;1&quot; connect=&quot;1&quot; arrows=&quot;1&quot; fold=&quot;1&quot; page=&quot;1&quot; pageScale=&quot;1&quot; pageWidth=&quot;850&quot; pageHeight=&quot;1100&quot; math=&quot;0&quot; shadow=&quot;0&quot;&gt;&#10;      &lt;root&gt;&#10;        &lt;mxCell id=&quot;0&quot; /&gt;&#10;        &lt;mxCell id=&quot;1&quot; parent=&quot;0&quot; /&gt;&#10;        &lt;mxCell id=&quot;mkHbZpV4RlObTLPO8NZR-3&quot; value=&quot;&quot; style=&quot;shape=mxgraph.sap.icon;labelPosition=center;verticalLabelPosition=bottom;align=center;verticalAlign=top;strokeWidth=1;strokeColor=#D5DADD;fillColor=#EDEFF0;gradientColor=#FCFCFC;gradientDirection=west;aspect=fixed;SAPIcon=SAP_Automation_Pilot&quot; vertex=&quot;1&quot; parent=&quot;1&quot;&gt;&#10;          &lt;mxGeometry x=&quot;160&quot; y=&quot;300&quot; width=&quot;50&quot; height=&quot;50&quot; as=&quot;geometry&quot; /&gt;&#10;        &lt;/mxCell&gt;&#10;      &lt;/root&gt;&#10;    &lt;/mxGraphModel&gt;&#10;  &lt;/diagram&gt;&#10;&lt;/mxfile&gt;&#10;" style="background-color: rgb(255, 255, 255);"><defs><linearGradient x1="100%" y1="0%" x2="0%" y2="0%" id="mx-gradient-fcfcfc-1-edeff0-1-e-0"><stop offset="0%" style="stop-color: rgb(237, 239, 240); stop-opacity: 1;"/><stop offset="100%" style="stop-color: rgb(252, 252, 252); stop-opacity: 1;"/></linearGradient></defs><rect fill="#ffffff" width="100%" height="100%" x="0" y="0"/><g><g data-cell-id="0"><g data-cell-id="1"><g data-cell-id="mkHbZpV4RlObTLPO8NZR-3"><g><ellipse cx="25" cy="25" rx="25" ry="25" fill="url(#mx-gradient-fcfcfc-1-edeff0-1-e-0)" stroke="#d5dadd" pointer-events="all"/><g><svg viewBox="-0.5 -0.5 28.917 27.526" height="30" width="30" xmlns="http://www.w3.org/2000/svg" x="9.5" y="9.5" style="font-family: initial;">&#xa;	<defs>&#xa;		<linearGradient gradientUnits="userSpaceOnUse" y2="14.868" x2="19.673" y1="3.616" x1="2.148" id="A">&#xa;			<stop stop-color="#0195ff"/>&#xa;			<stop stop-color="#1147e9" offset=".991"/>&#xa;		</linearGradient>&#xa;		<linearGradient gradientUnits="userSpaceOnUse" y2="16.602" x2="29.365" y1="5.378" x1="14.183" id="B">&#xa;			<stop stop-color="#1348ff"/>&#xa;			<stop stop-color="#06238d" offset="1"/>&#xa;		</linearGradient>&#xa;	</defs>&#xa;	<path fill="url(#A)" d="M11.274-.5h1.882c.645 0 1.237.215 1.774.645.502.394.806.914.914 1.559l.376 1.774.947.573-.851.634h-.735a3 3 0 0 0-3 3l.002.104-.341-.01c-.753 0-1.469.143-2.15.43s-1.272.681-1.774 1.183a5.67 5.67 0 0 0-1.183 1.72c-.287.681-.43 1.398-.43 2.15s.143 1.452.43 2.097c.287.681.681 1.272 1.183 1.774s1.093.896 1.774 1.183 1.398.43 2.15.43l.359-.011c-.013.115-.02.232-.02.351a3 3 0 0 0 3 3h.735l.67.499-.765.463-.376 1.774a2.65 2.65 0 0 1-.968 1.559c-.502.43-1.075.645-1.72.645h-1.882c-.645 0-1.219-.215-1.72-.645a2.65 2.65 0 0 1-.968-1.559l-.323-1.774-2.366-1.398-1.613.645c-.287.143-.627.215-1.021.215-.502 0-.968-.125-1.398-.376-.466-.251-.824-.627-1.075-1.129l-.968-1.989c-.215-.358-.323-.771-.323-1.237 0-.896.376-1.613 1.129-2.15l1.29-.968v-2.796l-1.29-.914C-.124 10.378-.5 9.643-.5 8.747c0-.43.108-.842.323-1.237L.79 5.521c.251-.502.609-.878 1.075-1.129.43-.251.896-.376 1.398-.376a3.21 3.21 0 0 1 1.021.161l1.613.699 2.366-1.398.323-1.774A2.65 2.65 0 0 1 9.553.145c.502-.43 1.075-.645 1.72-.645z"/>&#xa;	<g fill-rule="evenodd">&#xa;		<path fill="url(#B)" d="M21.45 4.489c.471-1.422 1.812-2.449 3.393-2.449 1.974 0 3.574 1.6 3.574 3.574s-1.6 3.574-3.574 3.574c-1.581 0-2.922-1.026-3.393-2.449h-.834L18.185 8.55c-.227.169-.502.26-.784.26h-1.667c-.621 0-1.125-.504-1.125-1.125s.504-1.125 1.125-1.125h1.357l2.431-1.811c.227-.169.502-.26.784-.26zm2.069 1.125c0-.731.593-1.324 1.324-1.324s1.324.593 1.324 1.324-.593 1.324-1.324 1.324-1.324-.593-1.324-1.324z"/>&#xa;		<path fill="url(#B)" d="M21.45 22.283c.472 1.423 1.813 2.449 3.393 2.449 1.974 0 3.574-1.6 3.574-3.574s-1.6-3.574-3.574-3.574c-1.581 0-2.922 1.026-3.393 2.449h-.834l-2.431-1.811a1.31 1.31 0 0 0-.784-.26h-1.667c-.621 0-1.125.504-1.125 1.125s.504 1.125 1.125 1.125h1.357l2.431 1.811c.227.169.502.26.784.26zm2.069-1.125c0 .731.593 1.324 1.324 1.324s1.324-.593 1.324-1.324-.593-1.324-1.324-1.324-1.324.593-1.324 1.324z"/>&#xa;		<path fill="url(#B)" d="M20.48 9.812c-1.581 0-2.922 1.026-3.393 2.449h-4.248c-.621 0-1.125.504-1.125 1.125s.504 1.125 1.125 1.125h4.248c.471 1.423 1.812 2.449 3.393 2.449 1.974 0 3.574-1.6 3.574-3.574s-1.6-3.574-3.574-3.574zm0 2.25c-.731 0-1.324.593-1.324 1.324s.593 1.324 1.324 1.324 1.324-.593 1.324-1.324-.593-1.324-1.324-1.324z"/>&#xa;	</g>&#xa;</svg></g></g></g></g></g></g></svg>